<mxfile host="app.diagrams.net" modified="2023-09-24T06:55:10.674Z" agent="Mozilla/5.0 (Windows NT 10.0; Win64; x64) AppleWebKit/537.36 (KHTML, like Gecko) Chrome/117.0.0.0 Safari/537.36" version="21.8.1" etag="wLrRZo7-zRVxWh9di9sb" type="github">
  <diagram name="Page-1" id="rCQEHk5AixNXXwSne6Aq">
    <mxGraphModel>
      <root>
        <mxCell id="0" />
        <mxCell id="1" parent="0" />
      </root>
    </mxGraphModel>
  </diagram>
</mxfile>
